<svg width="308" height="282" viewBox="0 0 308 282" fill="none" xmlns="http://www.w3.org/2000/svg">
<g filter="url(#filter0_f_102_77)">
<ellipse cx="178.5" cy="114.185" rx="59.5" ry="44.185" fill="url(#paint0_radial_102_77)"/>
</g>
<path d="M226.424 120.185C226.424 110.245 223.081 100.595 216.935 92.7948C210.789 84.9948 202.2 79.5005 192.555 77.1998C182.911 74.8991 172.774 75.9264 163.784 80.1157C154.793 84.3051 147.474 91.4116 143.01 100.287C138.545 109.162 137.196 119.288 139.179 129.027C141.163 138.766 146.365 147.55 153.943 153.959C161.521 160.368 171.033 164.028 180.942 164.347C190.85 164.666 200.577 161.626 208.55 155.717L182.356 120.185H226.424Z" fill="url(#paint1_linear_102_77)"/>
<g filter="url(#filter1_d_102_77)">
<path fill-rule="evenodd" clip-rule="evenodd" d="M204.39 223H115.831H112.864V222.934C78.4363 221.389 51 193.097 51 158.422C51 122.757 80.0256 93.8439 115.831 93.8439C144.529 93.8439 168.872 112.418 177.405 138.156C185.02 132.725 194.333 129.532 204.39 129.532C230.132 129.532 251 150.455 251 176.266C251 201.508 231.042 222.075 206.085 222.97V223H204.39Z" fill="url(#paint2_radial_102_77)"/>
</g>
<g filter="url(#filter2_i_102_77)">
<path fill-rule="evenodd" clip-rule="evenodd" d="M206.085 222.97C231.042 222.075 251 201.508 251 176.266C251 150.455 230.132 129.532 204.39 129.532C194.333 129.532 185.02 132.725 177.405 138.156C168.872 112.418 144.529 93.8439 115.831 93.8439C80.0256 93.8439 51 122.757 51 158.422C51 193.097 78.4363 221.389 112.864 222.934V223H115.831H204.39H206.085V222.97Z" fill="url(#paint3_radial_102_77)"/>
</g>
<defs>
<filter id="filter0_f_102_77" x="49.8911" y="0.891136" width="257.218" height="226.588" filterUnits="userSpaceOnUse" color-interpolation-filters="sRGB">
<feFlood flood-opacity="0" result="BackgroundImageFix"/>
<feBlend mode="normal" in="SourceGraphic" in2="BackgroundImageFix" result="shape"/>
<feGaussianBlur stdDeviation="34.5544" result="effect1_foregroundBlur_102_77"/>
</filter>
<filter id="filter1_d_102_77" x="0" y="84.8439" width="268" height="197.156" filterUnits="userSpaceOnUse" color-interpolation-filters="sRGB">
<feFlood flood-opacity="0" result="BackgroundImageFix"/>
<feColorMatrix in="SourceAlpha" type="matrix" values="0 0 0 0 0 0 0 0 0 0 0 0 0 0 0 0 0 0 127 0" result="hardAlpha"/>
<feOffset dx="-17" dy="25"/>
<feGaussianBlur stdDeviation="17"/>
<feColorMatrix type="matrix" values="0 0 0 0 0.606242 0 0 0 0 0.650102 0 0 0 0 0.701936 0 0 0 0.2 0"/>
<feBlend mode="normal" in2="BackgroundImageFix" result="effect1_dropShadow_102_77"/>
<feBlend mode="normal" in="SourceGraphic" in2="effect1_dropShadow_102_77" result="shape"/>
</filter>
<filter id="filter2_i_102_77" x="51" y="93.8439" width="200" height="133.156" filterUnits="userSpaceOnUse" color-interpolation-filters="sRGB">
<feFlood flood-opacity="0" result="BackgroundImageFix"/>
<feBlend mode="normal" in="SourceGraphic" in2="BackgroundImageFix" result="shape"/>
<feColorMatrix in="SourceAlpha" type="matrix" values="0 0 0 0 0 0 0 0 0 0 0 0 0 0 0 0 0 0 127 0" result="hardAlpha"/>
<feOffset dy="4"/>
<feGaussianBlur stdDeviation="2.5"/>
<feComposite in2="hardAlpha" operator="arithmetic" k2="-1" k3="1"/>
<feColorMatrix type="matrix" values="0 0 0 0 1 0 0 0 0 1 0 0 0 0 1 0 0 0 1 0"/>
<feBlend mode="normal" in2="shape" result="effect1_innerShadow_102_77"/>
</filter>
<radialGradient id="paint0_radial_102_77" cx="0" cy="0" r="1" gradientUnits="userSpaceOnUse" gradientTransform="translate(203.327 70) rotate(118.686) scale(70.8707 150.696)">
<stop stop-color="#FFC100"/>
<stop offset="1" stop-color="#FF3100"/>
</radialGradient>
<linearGradient id="paint1_linear_102_77" x1="157.979" y1="79.5618" x2="157.979" y2="128.445" gradientUnits="userSpaceOnUse">
<stop stop-color="#FFC100"/>
<stop offset="1" stop-color="#FF8E00"/>
</linearGradient>
<radialGradient id="paint2_radial_102_77" cx="0" cy="0" r="1" gradientUnits="userSpaceOnUse" gradientTransform="translate(156.685 121.75) rotate(90) scale(151.452 234.525)">
<stop stop-color="white"/>
<stop offset="1" stop-color="#DEE5EE"/>
</radialGradient>
<radialGradient id="paint3_radial_102_77" cx="0" cy="0" r="1" gradientUnits="userSpaceOnUse" gradientTransform="translate(156.685 121.75) rotate(90) scale(151.452 234.525)">
<stop stop-color="white" stop-opacity="0.103027"/>
<stop offset="1" stop-color="#DEE5EE"/>
</radialGradient>
</defs>
</svg>
